<svg xmlns="http://www.w3.org/2000/svg" viewBox="0 0 700 620"><defs><linearGradient id="bg" x1="0" y1="0" x2="1" y2="1"><stop stop-color="#fff8e9"/><stop offset="1" stop-color="#f5e1bd"/></linearGradient></defs><rect width="700" height="620" rx="48" fill="url(#bg)"/><circle cx="570" cy="115" r="82" fill="#f5ad16" opacity=".18"/><path d="M145 430h410" stroke="#d7c29c" stroke-width="10" stroke-linecap="round"/><path d="M188 420l40-205h115l40 205z" fill="#fff" stroke="#25313a" stroke-width="7"/><path d="M228 215h115v56H228z" fill="#f5ad16"/><path d="M395 420h130l-18-125H413z" fill="#273844" stroke="#25313a" stroke-width="7"/><path d="M425 330h72" stroke="#f5ad16" stroke-width="9"/><path d="M118 210l43-57 43 57-43 85z" fill="#263844"/><path d="M118 210l43-57 43 57" fill="none" stroke="#f5ad16" stroke-width="10"/><path d="M555 255l34 17-19 102-38-10z" fill="#fff" stroke="#25313a" stroke-width="7"/><path d="M575 273l-17 91" stroke="#f5ad16" stroke-width="7"/></svg>